<svg xmlns="http://www.w3.org/2000/svg" xmlns:xlink="http://www.w3.org/1999/xlink">


    <symbol id="call" viewBox="0 0 384 384">
		<path d="M353.188,252.052c-23.51,0-46.594-3.677-68.469-10.906c-10.719-3.656-23.896-0.302-30.438,6.417l-43.177,32.594
			c-50.073-26.729-80.917-57.563-107.281-107.26l31.635-42.052c8.219-8.208,11.167-20.198,7.635-31.448
			c-7.26-21.99-10.948-45.063-10.948-68.583C132.146,13.823,118.323,0,101.333,0H30.813C13.823,0,0,13.823,0,30.813
			C0,225.563,158.438,384,353.188,384c16.99,0,30.813-13.823,30.813-30.813v-70.323C384,265.875,370.177,252.052,353.188,252.052z"
			/>
    </symbol>
	<symbol id="email" viewBox="0 0 512 512">
		<polygon points="339.392,258.624 512,367.744 512,144.896 "/>
		<polygon points="0,144.896 0,367.744 172.608,258.624"/>
		<path d="M480,80H32C16.032,80,3.36,91.904,0.96,107.232L256,275.264l255.04-168.032C508.64,91.904,495.968,80,480,80z"/>
		<path d="M310.08,277.952l-45.28,29.824c-2.688,1.76-5.728,2.624-8.8,2.624c-3.072,0-6.112-0.864-8.8-2.624l-45.28-29.856
			L1.024,404.992C3.488,420.192,16.096,432,32,432h448c15.904,0,28.512-11.808,30.976-27.008L310.08,277.952z"/>
	</symbol>
    <symbol id="play" viewBox="0 0 120 120">
        <circle cx="60" cy="60" r="59" stroke="white" stroke-width="2"/>
        <path d="M79 57.768C80.3333 58.5378 80.3333 60.4622 79 61.232L51.25 77.2535C49.9167 78.0233 48.25 77.0611 48.25 75.5215L48.25 43.4785C48.25 41.9389 49.9167 40.9767 51.25 41.7465L79 57.768Z" fill="white"/>
    </symbol>
    <symbol id="star" viewBox="0 0 23 21" >
        <path d="M11.5 0L14.8798 6.84815L22.4371 7.9463L16.9686 13.2768L18.2595 20.8037L11.5 17.25L4.74047 20.8037L6.03142 13.2768L0.56285 7.9463L8.12023 6.84815L11.5 0Z" fill="#212121"/>
    </symbol>
    <symbol id="arrow" viewBox="0 0 14 27">
        <path d="M0.856165 1.42853L11.999 13.5L0.856165 25.5714" stroke="#212121" stroke-width="2"/>
    </symbol>
    <symbol id="minus" viewBox="0 0 448 512">
        <path d="M400 288h-352c-17.69 0-32-14.32-32-32.01s14.31-31.99 32-31.99h352c17.69 0 32 14.3 32 31.99S417.7 288 400 288z"/>
    </symbol>
    <symbol id="plus" viewBox="0 0 448 512">
    <path d="M432 256c0 17.69-14.33 32.01-32 32.01H256v144c0 17.69-14.33 31.99-32 31.99s-32-14.3-32-31.99v-144H48c-17.67 0-32-14.32-32-32.01s14.33-31.99 32-31.99H192v-144c0-17.69 14.33-32.01 32-32.01s32 14.32 32 32.01v144h144C417.7 224 432 238.3 432 256z"/>
    </symbol>

</svg>